<svg width="24" height="24" viewBox="0 0 48 48" xmlns="http://www.w3.org/2000/svg">
  <path fill="#EA4335" d="M24 9.5c3.54 0 6.7 1.22 9.2 3.6l6.9-6.9C35.9 2.3 30.4 0 24 0 14.6 0 6.5 5.4 2.7 13.3l8.4 6.5C13.1 13 18.1 9.5 24 9.5z"/>
  <path fill="#4285F4" d="M46.1 24.5c0-1.7-.1-3.3-.4-4.9H24v9.3h12.4c-.5 2.8-2.1 5.2-4.5 6.8l7 5.4c4.1-3.8 6.2-9.4 6.2-16.6z"/>
  <path fill="#FBBC05" d="M11.1 28.8c-1-2.8-1-5.9 0-8.7l-8.4-6.5C-.8 17.4-.8 30.6 2.7 34.4l8.4-6.6z"/>
  <path fill="#34A853" d="M24 48c6.4 0 11.9-2.1 15.9-5.7l-7-5.4c-1.9 1.3-4.4 2.1-8.9 2.1-5.9 0-10.9-3.9-12.7-9.3l-8.4 6.6C6.5 42.6 14.6 48 24 48z"/>
</svg>
